<svg xmlns="http://www.w3.org/2000/svg" xmlns:svg="http://www.w3.org/2000/svg" id="svg2" width="761.022" height="206.536" version="1.1" viewBox="0 0 713.458 193.627"><defs id="defs4"><marker id="marker5295" orient="auto" overflow="visible" refX="0" refY="0"><path id="path5297" fill="#000" fill-opacity="1" fill-rule="evenodd" stroke="#000" stroke-opacity="1" stroke-width="1pt" d="m 5.77,0 -8.65,5 0,-10 8.65,5 z" transform="scale(0.4,0.4)"/></marker><marker id="marker4538" orient="auto" overflow="visible" refX="0" refY="0"><path id="path4540" fill="#000" fill-opacity="1" fill-rule="evenodd" stroke="#000" stroke-opacity="1" stroke-width="1pt" d="m 5.77,0 -8.65,5 0,-10 8.65,5 z" transform="scale(0.4,0.4)"/></marker><marker id="TriangleOutM" orient="auto" overflow="visible" refX="0" refY="0"><path id="path4333" fill="#000" fill-opacity="1" fill-rule="evenodd" stroke="#000" stroke-opacity="1" stroke-width="1pt" d="m 5.77,0 -8.65,5 0,-10 8.65,5 z" transform="scale(0.4,0.4)"/></marker></defs><metadata id="metadata7"/><g id="layer1" transform="translate(-28.142853,-93.712433)"><text id="text4138" x="28.143" y="208.841" fill="#000" fill-opacity="1" stroke="none" stroke-linecap="butt" stroke-linejoin="miter" stroke-opacity="1" stroke-width="1" font-family="sans-serif" font-size="13.75" font-style="normal" font-weight="normal" letter-spacing="0" word-spacing="0" xml:space="preserve" style="line-height:125%"><tspan style="-inkscape-font-specification:'Ubuntu Mono'" id="tspan4140" x="28.143" y="208.841" font-family="Ubuntu Mono" font-stretch="normal" font-style="normal" font-variant="normal" font-weight="normal">int main() {</tspan><tspan id="tspan4142" x="28.143" y="226.028" font-family="Ubuntu Mono" font-stretch="normal" font-style="normal" font-variant="normal" font-weight="normal" style="-inkscape-font-specification:'Ubuntu Mono'"> printf(&quot;Hello world!&quot;);</tspan><tspan id="tspan4144" x="28.143" y="243.216" font-family="Ubuntu Mono" font-stretch="normal" font-style="normal" font-variant="normal" font-weight="normal" style="-inkscape-font-specification:'Ubuntu Mono'">}</tspan></text><text id="text4146" x="334.595" y="166.353" fill="#000" fill-opacity="1" stroke="none" stroke-linecap="butt" stroke-linejoin="miter" stroke-opacity="1" stroke-width="1" font-family="sans-serif" font-size="13.75" font-style="normal" font-weight="normal" letter-spacing="0" word-spacing="0" xml:space="preserve" style="line-height:125%"><tspan style="-inkscape-font-specification:'Ubuntu Mono'" id="tspan4148" x="334.595" y="166.353" font-family="Ubuntu Mono" font-stretch="normal" font-style="normal" font-variant="normal" font-weight="normal">55</tspan><tspan style="-inkscape-font-specification:'Ubuntu Mono'" id="tspan4150" x="334.595" y="183.541" font-family="Ubuntu Mono" font-stretch="normal" font-style="normal" font-variant="normal" font-weight="normal">48 89 e5</tspan><tspan style="-inkscape-font-specification:'Ubuntu Mono'" id="tspan4152" x="334.595" y="200.728" font-family="Ubuntu Mono" font-stretch="normal" font-style="normal" font-variant="normal" font-weight="normal">bf 94 05 40 00</tspan><tspan style="-inkscape-font-specification:'Ubuntu Mono'" id="tspan4154" x="334.595" y="217.916" font-family="Ubuntu Mono" font-stretch="normal" font-style="normal" font-variant="normal" font-weight="normal">b8 00 00 00 00</tspan><tspan style="-inkscape-font-specification:'Ubuntu Mono'" id="tspan4156" x="334.595" y="235.103" font-family="Ubuntu Mono" font-stretch="normal" font-style="normal" font-variant="normal" font-weight="normal">e8 e7 fe ff ff</tspan><tspan style="-inkscape-font-specification:'Ubuntu Mono'" id="tspan4158" x="334.595" y="252.291" font-family="Ubuntu Mono" font-stretch="normal" font-style="normal" font-variant="normal" font-weight="normal">b8 00 00 00 00</tspan><tspan style="-inkscape-font-specification:'Ubuntu Mono'" id="tspan4160" x="334.595" y="269.478" font-family="Ubuntu Mono" font-stretch="normal" font-style="normal" font-variant="normal" font-weight="normal">5d</tspan><tspan style="-inkscape-font-specification:'Ubuntu Mono'" id="tspan4162" x="334.595" y="286.666" font-family="Ubuntu Mono" font-stretch="normal" font-style="normal" font-variant="normal" font-weight="normal">c3</tspan></text><text id="text4164" x="563.429" y="166.876" fill="#000" fill-opacity="1" stroke="none" stroke-linecap="butt" stroke-linejoin="miter" stroke-opacity="1" stroke-width="1" font-family="sans-serif" font-size="13.75" font-style="normal" font-weight="normal" letter-spacing="0" word-spacing="0" xml:space="preserve" style="line-height:125%"><tspan style="-inkscape-font-specification:'Ubuntu Mono'" id="tspan4166" x="563.429" y="166.876" font-family="Ubuntu Mono" font-stretch="normal" font-style="normal" font-variant="normal" font-weight="normal">push rbp</tspan><tspan style="-inkscape-font-specification:'Ubuntu Mono'" id="tspan4168" x="563.429" y="184.063" font-family="Ubuntu Mono" font-stretch="normal" font-style="normal" font-variant="normal" font-weight="normal">mov rbp,rsp</tspan><tspan style="-inkscape-font-specification:'Ubuntu Mono'" id="tspan4170" x="563.429" y="201.251" font-family="Ubuntu Mono" font-stretch="normal" font-style="normal" font-variant="normal" font-weight="normal">mov edi,0x400594</tspan><tspan style="-inkscape-font-specification:'Ubuntu Mono'" id="tspan4172" x="563.429" y="218.438" font-family="Ubuntu Mono" font-stretch="normal" font-style="normal" font-variant="normal" font-weight="normal">mov eax,0x0</tspan><tspan style="-inkscape-font-specification:'Ubuntu Mono'" id="tspan4174" x="563.429" y="235.626" font-family="Ubuntu Mono" font-stretch="normal" font-style="normal" font-variant="normal" font-weight="normal">call 4003f0 &lt;printf@plt&gt;</tspan><tspan style="-inkscape-font-specification:'Ubuntu Mono'" id="tspan4176" x="563.429" y="252.813" font-family="Ubuntu Mono" font-stretch="normal" font-style="normal" font-variant="normal" font-weight="normal">mov eax,0x0</tspan><tspan style="-inkscape-font-specification:'Ubuntu Mono'" id="tspan4178" x="563.429" y="270.001" font-family="Ubuntu Mono" font-stretch="normal" font-style="normal" font-variant="normal" font-weight="normal">pop rbp</tspan><tspan style="-inkscape-font-specification:'Ubuntu Mono'" id="tspan4180" x="563.429" y="287.188" font-family="Ubuntu Mono" font-stretch="normal" font-style="normal" font-variant="normal" font-weight="normal">ret</tspan></text><path id="path4182" fill="none" fill-rule="evenodd" stroke="#000" stroke-dasharray="none" stroke-linecap="butt" stroke-linejoin="miter" stroke-miterlimit="4" stroke-opacity="1" stroke-width="2" marker-end="url(#TriangleOutM)" d="m 218.57143,222.3622 92.85714,0"/><path id="path4536" fill="none" fill-rule="evenodd" stroke="#000" stroke-dasharray="none" stroke-linecap="butt" stroke-linejoin="miter" stroke-miterlimit="4" stroke-opacity="1" stroke-width="2" marker-end="url(#marker4538)" d="m 448.57143,222.3622 92.85714,0"/><text id="text5256" x="234.143" y="210.934" fill="#000" fill-opacity="1" stroke="none" stroke-linecap="butt" stroke-linejoin="miter" stroke-opacity="1" stroke-width="1" font-family="sans-serif" font-size="13.75" font-style="normal" font-weight="normal" letter-spacing="0" word-spacing="0" xml:space="preserve" style="line-height:125%"><tspan style="-inkscape-font-specification:Ubuntu" id="tspan5258" x="234.143" y="210.934" font-family="Ubuntu" font-stretch="normal" font-style="normal" font-variant="normal" font-weight="normal">Compiler</tspan></text><text id="text5260" x="454.143" y="209.648" fill="#000" fill-opacity="1" stroke="none" stroke-linecap="butt" stroke-linejoin="miter" stroke-opacity="1" stroke-width="1" font-family="sans-serif" font-size="13.75" font-style="normal" font-weight="normal" letter-spacing="0" word-spacing="0" xml:space="preserve" style="line-height:125%"><tspan id="tspan5262" x="454.143" y="209.648" font-family="Ubuntu" font-stretch="normal" font-style="normal" font-variant="normal" font-weight="normal" style="-inkscape-font-specification:Ubuntu">Disassembler</tspan></text><path id="path8667" d="m 366.77976,134.51939 q -1.8659,0 -3.19464,-1.32874 -1.32874,-1.32874 -1.32874,-3.19463 l 0,-19.90286 q 0,-1.86589 1.32874,-3.19463 1.32874,-1.32874 3.19464,-1.32874 l 30.75896,0 q 1.86589,0 3.19464,1.32874 1.32874,1.32874 1.32874,3.19463 l 0,19.90286 q 0,1.86589 -1.32874,3.19463 -1.32875,1.32874 -3.19464,1.32874 l -30.75896,0 z m -0.90468,-24.42623 0,19.90286 q 0,0.36752 0.26858,0.6361 0.26857,0.26857 0.6361,0.26857 l 30.75896,0 q 0.36753,0 0.6361,-0.26857 0.26857,-0.26858 0.26857,-0.6361 l 0,-19.90286 q 0,-0.36752 -0.26857,-0.6361 -0.26857,-0.26857 -0.6361,-0.26857 l -30.75896,0 q -0.36753,0 -0.6361,0.26857 -0.26858,0.26858 -0.26858,0.6361 z m 38.90104,26.23558 4.52338,0 0,2.71403 q 0,1.13084 -1.32874,1.92244 -1.32874,0.79159 -3.19464,0.79159 l -45.23376,0 q -1.8659,0 -3.19464,-0.79159 -1.32874,-0.7916 -1.32874,-1.92244 l 0,-2.71403 49.75714,0 z m -20.35519,2.71403 q 0.45234,0 0.45234,-0.45234 0,-0.45234 -0.45234,-0.45234 l -4.52338,0 q -0.45234,0 -0.45234,0.45234 0,0.45234 0.45234,0.45234 l 4.52338,0 z"/><path id="path8726" d="m 117.95309,138.49807 q 0,3.4974 -2.12758,5.52297 -2.12758,2.02558 -5.65412,2.02558 l -25.472689,0 q -3.52654,0 -5.65412,-2.02558 -2.127583,-2.02557 -2.127583,-5.52297 0,-1.54468 0.102008,-3.0165 0.102006,-1.47182 0.40803,-3.1768 0.306021,-1.70498 0.77234,-3.16222 0.46632,-1.45725 1.253234,-2.84164 0.786912,-1.38438 1.806987,-2.36074 1.020072,-0.97635 2.491893,-1.55925 1.47182,-0.5829 3.249663,-0.5829 0.262304,0 1.224088,0.62661 0.961783,0.62662 2.171299,1.39896 1.209516,0.77234 3.147655,1.39896 1.938139,0.62661 3.890852,0.62661 1.952711,0 3.890853,-0.62661 1.93814,-0.62662 3.14765,-1.39896 1.20952,-0.77234 2.1713,-1.39896 0.96179,-0.62661 1.22409,-0.62661 1.77784,0 3.24966,0.5829 1.47182,0.5829 2.4919,1.55925 1.02007,0.97636 1.80699,2.36074 0.78691,1.38439 1.25323,2.84164 0.46632,1.45724 0.77234,3.16222 0.30602,1.70498 0.40803,3.1768 0.102,1.47182 0.102,3.0165 z m -9.32638,-26.02644 q 0,4.63405 -3.27881,7.91286 -3.2788,3.27881 -7.912853,3.27881 -4.634048,0 -7.912855,-3.27881 -3.278809,-3.27881 -3.278809,-7.91286 0,-4.63404 3.278809,-7.91285 3.278807,-3.27881 7.912855,-3.27881 4.634053,0 7.912853,3.27881 3.27881,3.27881 3.27881,7.91285 z"/><path id="path8735" d="m 637.95309,138.49807 q 0,3.4974 -2.12758,5.52297 -2.12758,2.02558 -5.65412,2.02558 l -25.47269,0 q -3.52654,0 -5.65412,-2.02558 -2.12758,-2.02557 -2.12758,-5.52297 0,-1.54468 0.102,-3.0165 0.10201,-1.47182 0.40803,-3.1768 0.30602,-1.70498 0.77234,-3.16222 0.46632,-1.45725 1.25324,-2.84164 0.78691,-1.38438 1.80698,-2.36074 1.02008,-0.97635 2.4919,-1.55925 1.47182,-0.5829 3.24966,-0.5829 0.2623,0 1.22409,0.62661 0.96178,0.62662 2.1713,1.39896 1.20951,0.77234 3.14765,1.39896 1.93814,0.62661 3.89085,0.62661 1.95272,0 3.89086,-0.62661 1.93814,-0.62662 3.14765,-1.39896 1.20952,-0.77234 2.1713,-1.39896 0.96179,-0.62661 1.22409,-0.62661 1.77784,0 3.24966,0.5829 1.47182,0.5829 2.4919,1.55925 1.02007,0.97636 1.80699,2.36074 0.78691,1.38439 1.25323,2.84164 0.46632,1.45724 0.77234,3.16222 0.30602,1.70498 0.40803,3.1768 0.102,1.47182 0.102,3.0165 z m -9.32638,-26.02644 q 0,4.63405 -3.27881,7.91286 -3.27881,3.27881 -7.91286,3.27881 -4.63404,0 -7.91285,-3.27881 -3.27881,-3.27881 -3.27881,-7.91286 0,-4.63404 3.27881,-7.91285 3.27881,-3.27881 7.91285,-3.27881 4.63405,0 7.91286,3.27881 3.27881,3.27881 3.27881,7.91285 z"/></g></svg>