<svg xmlns="http://www.w3.org/2000/svg" width="632.824" height="117.737" viewBox="0 0 593.272 110.378"><defs><marker id="d" orient="auto" overflow="visible"><path fill-rule="evenodd" stroke="#000" stroke-width=".4pt" d="M2.308 0l-3.46 2v-4l3.46 2z"/></marker><marker id="c" orient="auto" overflow="visible"><path fill-rule="evenodd" stroke="#000" stroke-width=".4pt" d="M2.308 0l-3.46 2v-4l3.46 2z"/></marker><marker id="b" orient="auto" overflow="visible"><path fill-rule="evenodd" stroke="#000" stroke-width=".4pt" d="M2.308 0l-3.46 2v-4l3.46 2z"/></marker><marker id="a" orient="auto" overflow="visible"><path fill-rule="evenodd" stroke="#000" stroke-width=".4pt" d="M2.308 0l-3.46 2v-4l3.46 2z"/></marker></defs><path fill="none" stroke="#000" stroke-linecap="square" stroke-width=".516" d="M.258 65.673h56.548v26.84H.258z"/><text x="108.591" y="287.677" font-family="sans-serif" font-size="13.75" font-weight="400" letter-spacing="0" transform="translate(-96.475 -204.084)" word-spacing="0" style="line-height:125%"><tspan style="-inkscape-font-specification:Ubuntu" x="108.591" y="287.677" font-family="Ubuntu">Start</tspan></text><path fill="none" stroke="#000" stroke-linecap="square" stroke-width="1.248" d="M116.017 48.432h144.71v61.322h-144.71z"/><text x="212.086" y="277.114" font-family="sans-serif" font-size="13.75" font-weight="400" letter-spacing="0" transform="translate(-88.475 -211.165)" word-spacing="0" style="line-height:125%"><tspan style="-inkscape-font-specification:Ubuntu" x="212.086" y="277.114" font-family="Ubuntu">Fetch the instruction</tspan><tspan style="-inkscape-font-specification:Ubuntu" x="212.086" y="294.301" font-family="Ubuntu">the instruction</tspan><tspan style="-inkscape-font-specification:Ubuntu" x="212.086" y="311.489" font-family="Ubuntu">pointer is pointing to</tspan></text><path fill="none" stroke="#000" stroke-linecap="square" stroke-width="1.292" d="M320.31 48.455h155.27v61.278H320.31z"/><text style="line-height:125%" x="413.923" y="295.504" font-family="sans-serif" font-size="13.75" font-weight="400" letter-spacing="0" transform="translate(-88.475 -211.165)" word-spacing="0"><tspan x="413.923" y="295.504" font-family="Ubuntu" style="-inkscape-font-specification:Ubuntu">Execute the instruction</tspan></text><path fill="none" stroke="#000" stroke-linecap="square" stroke-width=".516" d="M536.466 65.673h56.548v26.84h-56.548z"/><text style="line-height:125%" x="638.8" y="292.626" font-family="sans-serif" font-size="13.75" font-weight="400" letter-spacing="0" transform="translate(-88.475 -209.034)" word-spacing="0"><tspan x="638.8" y="292.626" font-family="Ubuntu" style="-inkscape-font-specification:Ubuntu">Halt</tspan></text><path fill="none" stroke="#000" stroke-dasharray="4 2" stroke-width="2" marker-end="url(#a)" d="M151.09 289.394h43.827" transform="translate(-88.475 -211.165)"/><path fill="none" stroke="#000" stroke-width="2" marker-end="url(#b)" d="M353.09 289.394h45.077" transform="translate(-88.475 -211.165)"/><path fill="none" stroke="#000" stroke-dasharray="4 2" stroke-width="2" marker-end="url(#c)" d="M569.09 289.394h44.264" transform="translate(-88.475 -211.165)"/><path fill="none" stroke="#000" stroke-width="2" marker-end="url(#d)" d="M492.5 253.862c.5-61.5-213.5-48-213-4.5" transform="translate(-88.475 -211.165)"/></svg>